<svg width="1053" height="1041" viewBox="0 0 1053 1041" fill="none" xmlns="http://www.w3.org/2000/svg">
<g clip-path="url(#clip0_544_19)">
<path d="M917.667 897.499L776.336 712.059C775.624 711.122 774.733 710.382 773.95 709.676C755.946 729.962 735.207 748.724 712.435 765.525C689.681 782.329 665.534 796.651 640.463 807.965C641.154 808.918 641.622 809.986 642.337 810.905L783.284 996.661C811.198 1033.31 863.991 1040.85 900.972 1013.55C937.995 986.222 945.484 934.174 917.667 897.499Z" fill="#1F026B" fill-opacity="0.35"/>
<path d="M769.036 204.417C640.688 35.6415 397.494 0.735487 226.832 126.631C56.0275 252.468 21.5763 492.363 149.991 661.203C278.416 829.971 521.665 864.885 692.303 739.024C862.947 613.126 897.364 373.208 769.036 204.417ZM230.419 601.93C135.397 476.945 160.927 299.335 287.252 206.232C413.59 113.038 593.672 138.885 688.668 263.792C783.625 388.712 758.124 566.122 631.87 659.513C505.597 752.383 325.476 726.938 230.419 601.93Z" fill="#1F026B" fill-opacity="0.35"/>
<path d="M609.341 510.699C588.069 537.687 572.531 592.481 601.927 605.378C624.981 615.791 662.296 578.608 680.078 551.295C761.452 427.743 677.213 275.663 651.976 272.734C627.157 269.854 693.491 403.857 609.341 510.699Z" fill="#1F026B" fill-opacity="0.35"/>
<path d="M855.399 340.512L719.518 484.763C719.315 484.979 719.192 485.235 719.164 485.501C719.136 485.766 719.204 486.028 719.36 486.256C719.516 486.484 719.752 486.667 720.041 486.782C720.33 486.898 720.658 486.942 720.986 486.907L870.277 471.335C870.722 471.289 871.135 471.102 871.424 470.815C871.713 470.529 871.854 470.166 871.817 469.808L858.395 341.13C858.364 340.861 858.234 340.61 858.021 340.407C857.809 340.205 857.523 340.061 857.201 339.995C856.879 339.928 856.536 339.942 856.214 340.034C855.893 340.126 855.609 340.293 855.399 340.512V340.512ZM847.06 454.111C847.074 454.249 847.054 454.39 847.001 454.524C846.948 454.659 846.863 454.785 846.751 454.895C846.639 455.006 846.502 455.098 846.348 455.167C846.193 455.235 846.025 455.279 845.853 455.296L770.83 463.122C770.573 463.152 770.314 463.12 770.086 463.031C769.858 462.942 769.671 462.798 769.548 462.62C769.426 462.441 769.373 462.234 769.397 462.026C769.42 461.818 769.52 461.617 769.682 461.449L837.972 388.95C838.702 388.161 840.214 388.479 840.313 389.429L847.06 454.111Z" fill="#1F026B"/>
<path d="M855.399 340.512L851.295 344.862L864.112 467.74C864.131 467.917 864.105 468.097 864.038 468.269C863.97 468.441 863.862 468.603 863.718 468.744C863.575 468.885 863.4 469.003 863.203 469.091C863.006 469.179 862.791 469.236 862.571 469.257L720.128 484.115L719.518 484.763C719.315 484.979 719.192 485.235 719.164 485.501C719.136 485.766 719.204 486.028 719.36 486.256C719.516 486.484 719.752 486.667 720.041 486.782C720.33 486.898 720.658 486.942 720.986 486.907L870.277 471.335C870.722 471.289 871.135 471.102 871.424 470.815C871.713 470.529 871.854 470.166 871.817 469.808L858.395 341.13C858.364 340.861 858.234 340.61 858.021 340.407C857.809 340.205 857.523 340.061 857.201 339.995C856.879 339.928 856.536 339.942 856.214 340.034C855.893 340.126 855.609 340.293 855.399 340.512V340.512Z" fill="#1F026B"/>
<path d="M850.976 353.728C850.33 353.795 849.731 354.066 849.313 354.481C848.894 354.896 848.689 355.422 848.743 355.941C848.798 356.461 849.106 356.932 849.602 357.252C850.097 357.572 850.738 357.714 851.385 357.646L859.524 356.797C859.692 356.777 859.857 356.746 860.02 356.706L859.619 352.866C859.452 352.855 859.283 352.859 859.116 352.879L850.976 353.728Z" fill="#F2F2F2"/>
<path d="M856.156 367.823C855.509 367.891 854.911 368.162 854.492 368.577C854.074 368.992 853.869 369.517 853.923 370.037C853.977 370.556 854.286 371.028 854.781 371.348C855.277 371.667 855.918 371.809 856.564 371.742L861.036 371.275C861.204 371.26 861.371 371.229 861.532 371.184L861.132 367.354C860.965 367.34 860.796 367.341 860.628 367.357L856.156 367.823Z" fill="#F2F2F2"/>
<path d="M857.664 382.311C857.017 382.379 856.419 382.65 856 383.065C855.582 383.48 855.377 384.005 855.431 384.525C855.485 385.044 855.794 385.516 856.289 385.836C856.785 386.155 857.426 386.297 858.072 386.23L862.544 385.763C862.712 385.744 862.878 385.71 863.039 385.662L862.639 381.832C862.472 381.821 862.303 381.825 862.135 381.845L857.664 382.311Z" fill="#F2F2F2"/>
<path d="M859.175 396.79C858.529 396.857 857.931 397.128 857.512 397.543C857.093 397.958 856.888 398.483 856.943 399.003C856.997 399.523 857.306 399.994 857.801 400.314C858.296 400.634 858.938 400.775 859.584 400.708L864.056 400.241C864.223 400.221 864.389 400.191 864.551 400.15L864.151 396.31C863.984 396.299 863.815 396.304 863.647 396.323L859.175 396.79Z" fill="#F2F2F2"/>
<path d="M857.019 411.65C856.373 411.718 855.774 411.989 855.356 412.404C854.937 412.819 854.732 413.344 854.786 413.864C854.841 414.383 855.149 414.855 855.645 415.175C856.14 415.494 856.781 415.636 857.428 415.569L865.567 414.72C865.735 414.704 865.902 414.674 866.063 414.628L865.662 410.788C865.495 410.782 865.326 410.787 865.159 410.801L857.019 411.65Z" fill="#F2F2F2"/>
<path d="M862.195 425.746C861.548 425.813 860.95 426.084 860.531 426.499C860.113 426.915 859.908 427.44 859.962 427.959C860.016 428.479 860.325 428.95 860.82 429.27C861.316 429.59 861.957 429.732 862.604 429.664L867.075 429.198C867.243 429.182 867.41 429.152 867.571 429.106L867.171 425.276C867.004 425.262 866.835 425.263 866.667 425.279L862.195 425.746Z" fill="#F2F2F2"/>
<path d="M863.707 440.234C863.06 440.301 862.462 440.572 862.043 440.987C861.624 441.403 861.42 441.928 861.474 442.447C861.528 442.967 861.837 443.438 862.332 443.758C862.828 444.078 863.469 444.22 864.115 444.152L868.587 443.686C868.755 443.667 868.921 443.633 869.082 443.585L868.682 439.755C868.515 439.744 868.346 439.748 868.178 439.767L863.707 440.234Z" fill="#F2F2F2"/>
<path d="M865.218 454.712C864.572 454.78 863.974 455.051 863.555 455.466C863.136 455.881 862.931 456.406 862.986 456.925C863.04 457.445 863.349 457.917 863.844 458.236C864.339 458.556 864.981 458.698 865.627 458.63L870.099 458.164C870.267 458.148 870.433 458.118 870.594 458.073L870.194 454.233C870.026 454.227 869.858 454.231 869.69 454.246L865.218 454.712Z" fill="#F2F2F2"/>
<path d="M852.878 464.773C852.232 464.84 851.634 465.111 851.215 465.526C850.796 465.941 850.592 466.466 850.646 466.986L851.306 473.314L856.18 472.806L855.52 466.478C855.462 465.959 855.153 465.489 854.658 465.17C854.164 464.851 853.524 464.708 852.878 464.773V464.773Z" fill="#F2F2F2"/>
<path d="M835.164 469.601C834.518 469.671 833.922 469.943 833.504 470.357C833.086 470.772 832.88 471.295 832.931 471.814L833.283 475.194L838.157 474.686L837.805 471.306C837.751 470.786 837.442 470.315 836.947 469.995C836.451 469.675 835.81 469.534 835.164 469.601V469.601Z" fill="#F2F2F2"/>
<path d="M817.156 471.48C816.511 471.549 815.914 471.821 815.496 472.236C815.078 472.65 814.872 473.174 814.923 473.693L815.276 477.072L820.15 476.564L819.797 473.185C819.743 472.665 819.434 472.193 818.939 471.874C818.443 471.554 817.802 471.412 817.156 471.48V471.48Z" fill="#F2F2F2"/>
<path d="M799.144 473.358C798.498 473.426 797.899 473.697 797.481 474.112C797.062 474.527 796.857 475.052 796.911 475.571L797.264 478.951L802.138 478.443L801.785 475.063C801.728 474.545 801.418 474.075 800.924 473.755C800.429 473.436 799.79 473.293 799.144 473.358V473.358Z" fill="#F2F2F2"/>
<path d="M780.816 472.289C780.171 472.359 779.574 472.631 779.156 473.045C778.738 473.46 778.532 473.984 778.583 474.503L779.243 480.831L784.117 480.322L783.457 473.994C783.403 473.475 783.094 473.003 782.599 472.683C782.104 472.364 781.462 472.222 780.816 472.289V472.289Z" fill="#F2F2F2"/>
<path d="M763.113 477.116C762.468 477.186 761.871 477.458 761.453 477.872C761.035 478.287 760.829 478.811 760.88 479.33L761.233 482.709L766.107 482.201L765.754 478.821C765.7 478.302 765.391 477.83 764.896 477.51C764.401 477.191 763.759 477.049 763.113 477.116V477.116Z" fill="#F2F2F2"/>
<path d="M745.105 478.995C744.459 479.062 743.86 479.333 743.442 479.749C743.023 480.164 742.818 480.689 742.872 481.208L743.225 484.588L748.099 484.079L747.746 480.7C747.689 480.181 747.379 479.711 746.885 479.392C746.39 479.073 745.751 478.93 745.105 478.995V478.995Z" fill="#F2F2F2"/>
<path d="M909.593 333.176L872.551 337.039L886.512 470.886L923.555 467.022L909.593 333.176Z" fill="#1F026B"/>
<path d="M888.841 441.959L877.839 336.488L872.551 337.039L886.512 470.889L923.555 467.025L923.258 464.175C905.723 466.004 890.311 456.055 888.841 441.959Z" fill="#5132A4"/>
<path d="M881.837 347.152C882.484 347.085 883.082 346.813 883.501 346.398C883.919 345.983 884.124 345.458 884.07 344.939C884.016 344.419 883.707 343.947 883.212 343.628C882.716 343.308 882.075 343.166 881.429 343.234L873.289 344.083L873.698 348.001L881.837 347.152Z" fill="#1F026B"/>
<path d="M879.677 362.013C880.324 361.945 880.922 361.674 881.341 361.259C881.76 360.844 881.964 360.319 881.91 359.799C881.856 359.28 881.547 358.808 881.052 358.489C880.556 358.169 879.915 358.027 879.269 358.094L874.797 358.561L875.206 362.479L879.677 362.013Z" fill="#1F026B"/>
<path d="M881.189 376.491C881.836 376.424 882.434 376.152 882.853 375.737C883.271 375.322 883.476 374.797 883.422 374.278C883.368 373.758 883.059 373.286 882.564 372.967C882.068 372.647 881.427 372.505 880.78 372.573L876.309 373.039L876.717 376.957L881.189 376.491Z" fill="#1F026B"/>
<path d="M882.701 390.979C883.347 390.911 883.946 390.64 884.364 390.225C884.783 389.81 884.988 389.285 884.934 388.765C884.879 388.246 884.571 387.774 884.075 387.455C883.58 387.135 882.939 386.993 882.292 387.061L877.82 387.527L878.229 391.445L882.701 390.979Z" fill="#1F026B"/>
<path d="M887.876 405.074C888.523 405.007 889.121 404.736 889.54 404.321C889.958 403.906 890.163 403.381 890.109 402.861C890.055 402.341 889.746 401.87 889.251 401.55C888.755 401.23 888.114 401.089 887.468 401.156L879.328 402.005L879.737 405.923L887.876 405.074Z" fill="#1F026B"/>
<path d="M885.72 419.935C886.367 419.868 886.965 419.597 887.384 419.182C887.803 418.767 888.007 418.241 887.953 417.722C887.899 417.202 887.59 416.731 887.095 416.411C886.599 416.091 885.958 415.95 885.312 416.017L880.84 416.483L881.249 420.402L885.72 419.935Z" fill="#1F026B"/>
<path d="M887.232 434.423C887.879 434.356 888.477 434.085 888.896 433.67C889.314 433.255 889.519 432.729 889.465 432.21C889.411 431.69 889.102 431.219 888.607 430.899C888.111 430.579 887.47 430.437 886.823 430.505L882.352 430.971L882.76 434.89L887.232 434.423Z" fill="#1F026B"/>
<path d="M888.74 448.901C889.386 448.834 889.985 448.563 890.403 448.148C890.822 447.733 891.027 447.208 890.973 446.688C890.918 446.168 890.61 445.697 890.114 445.377C889.619 445.057 888.978 444.916 888.331 444.983L883.859 445.449L884.268 449.368L888.74 448.901Z" fill="#1F026B"/>
<path d="M893.919 462.997C894.566 462.93 895.164 462.659 895.583 462.243C896.001 461.828 896.206 461.303 896.152 460.784C896.098 460.264 895.789 459.793 895.294 459.473C894.798 459.153 894.157 459.011 893.511 459.079L885.371 459.928L885.78 463.846L893.919 462.997Z" fill="#1F026B"/>
<path d="M903.245 333.838L898.371 334.346L912.333 468.196L917.207 467.688L903.245 333.838Z" fill="#1F026B"/>
<path d="M897.297 346.817L897.285 346.818C895.986 346.953 895.022 347.91 895.131 348.954L901.198 407.116C901.307 408.161 902.448 408.897 903.747 408.762L903.759 408.76C905.058 408.625 906.022 407.669 905.913 406.624L899.846 348.462C899.738 347.418 898.596 346.681 897.297 346.817Z" fill="#5132A4"/>
<path d="M916.687 401.178C916.625 400.583 915.977 400.163 915.241 400.24C914.504 400.317 913.957 400.861 914.019 401.456L918.325 442.745C918.387 443.34 919.035 443.76 919.772 443.683C920.509 443.606 921.056 443.062 920.994 442.466L916.687 401.178Z" fill="#5132A4"/>
<path d="M808.322 399.804C809.525 398.499 809.235 396.701 807.672 395.787C806.11 394.873 803.868 395.19 802.665 396.495L752.929 450.423C751.725 451.728 752.016 453.526 753.579 454.44C755.141 455.354 757.383 455.037 758.586 453.732L808.322 399.804Z" fill="#704FC8" fill-opacity="0.62"/>
<path d="M844.658 394.947L844.281 394.986C842.43 395.179 841.055 396.542 841.211 398.03L846.018 444.12C846.173 445.608 847.8 446.657 849.65 446.464L850.028 446.425C851.879 446.232 853.253 444.869 853.098 443.381L848.29 397.291C848.135 395.803 846.509 394.754 844.658 394.947Z" fill="#704FC8" fill-opacity="0.62"/>
<g clip-path="url(#clip1_544_19)">
<path d="M715.378 198.346C714.401 207.93 705.802 214.814 696.097 213.779L688.042 212.814C678.477 211.668 671.47 202.914 672.333 193.188L681.221 105.92C682.198 96.3358 690.797 89.452 700.502 90.4871L708.557 91.4523C718.122 92.5984 725.129 101.352 724.266 111.078L715.378 198.346Z" fill="#1F026B"/>
<path d="M681.221 105.92C682.197 96.3358 690.797 89.452 700.501 90.4871L708.556 91.4523C718.122 92.5984 725.129 101.352 724.266 111.078L718.357 169.088" fill="#1F026B"/>
<path d="M733.27 102.711C732.781 107.503 728.343 111.056 723.56 110.483L682.026 105.506C677.243 104.933 673.626 100.415 674.114 95.6228C674.603 90.8306 679.041 87.2777 683.824 87.8508L725.358 92.8274C730.28 93.2895 733.896 97.8076 733.27 102.711Z" fill="#1F026B"/>
<path d="M733.272 102.711C732.784 107.503 728.346 111.056 723.563 110.483L682.028 105.506C677.246 104.933 673.629 100.415 674.117 95.6228" fill="#1F026B"/>
<path d="M715.214 148.671C713.201 148.429 711.351 147.825 709.918 146.887C708.331 147.463 706.404 147.615 704.39 147.374C702.377 147.133 700.527 146.528 699.094 145.59C697.506 146.166 695.58 146.318 693.566 146.077C691.552 145.836 689.703 145.231 688.27 144.293C686.682 144.869 684.756 145.021 682.742 144.78C681.987 144.689 681.37 144.488 680.867 144.428L675.657 193.076C674.835 201.147 680.825 208.63 688.993 209.736L695.79 210.551C703.958 211.657 711.196 205.631 712.157 197.449L717.115 148.771C716.473 148.822 715.857 148.62 715.214 148.671Z" fill="#91D7C5"/>
<path d="M695.788 210.551C703.957 211.657 711.195 205.631 712.156 197.449L717.114 148.771C716.472 148.822 715.717 148.731 715.213 148.671C713.199 148.429 711.35 147.825 709.917 146.887C708.329 147.463 706.403 147.615 704.389 147.374C702.375 147.132 700.526 146.528 699.092 145.59" fill="#91D7C5"/>
<path d="M715.215 148.671C713.201 148.429 711.352 147.825 709.919 146.887C708.331 147.463 706.405 147.615 704.391 147.374C702.377 147.133 700.528 146.528 699.095 145.59C697.507 146.166 695.581 146.318 693.567 146.077C691.553 145.836 689.704 145.231 688.27 144.293C686.683 144.869 684.757 145.021 682.743 144.78C681.988 144.689 681.371 144.488 680.868 144.428L680.508 147.959C681.124 148.16 681.88 148.251 682.383 148.311C684.397 148.552 686.323 148.4 687.911 147.824C689.344 148.762 691.193 149.367 693.207 149.608C695.221 149.849 697.148 149.697 698.735 149.121C700.168 150.059 702.018 150.664 704.031 150.905C706.045 151.146 707.972 150.994 709.559 150.418C710.992 151.356 712.842 151.961 714.856 152.202C715.611 152.292 716.114 152.353 716.756 152.302L717.116 148.771C716.474 148.822 715.857 148.62 715.215 148.671Z" fill="#91D7C5"/>
<path d="M699.693 140.939C699.277 141.272 698.887 141.353 698.409 141.041C692.018 138.743 688.078 132.399 688.885 125.731C689.578 118.921 694.7 113.662 701.26 113.044C702.041 112.883 702.745 113.478 702.668 114.234C702.843 115.021 702.262 115.717 701.507 115.627C696.092 116.255 691.967 120.483 691.402 126.032C690.837 131.581 694.011 136.684 699.169 138.579C699.899 138.922 700.212 139.597 700.022 140.213C700.109 140.606 699.832 140.828 699.693 140.939Z" fill="#FFFCE9"/>
<path d="M707.578 138.565C705.636 140.12 703.104 141.22 700.396 141.534C699.615 141.696 698.912 141.101 698.989 140.344C698.814 139.558 699.394 138.861 700.15 138.952C705.564 138.324 709.69 134.095 710.255 128.546C710.82 122.998 707.645 117.894 702.487 116C701.758 115.657 701.445 114.981 701.635 114.366C701.963 113.639 702.631 113.336 703.248 113.538C709.638 115.835 713.579 122.179 712.772 128.848C712.387 132.631 710.491 136.234 707.578 138.565Z" fill="#FFFCE9"/>
<path d="M710.339 118.983C710.2 119.094 710.2 119.094 709.948 119.064L693.586 117.103C693.334 117.073 693.108 116.79 693.134 116.538C693.16 116.286 693.437 116.064 693.689 116.094L710.051 118.055C710.303 118.085 710.529 118.367 710.503 118.619C710.364 118.73 710.339 118.983 710.339 118.983Z" fill="#FFFCE9"/>
<path d="M709.813 122.877C709.675 122.988 709.675 122.988 709.423 122.958L693.199 120.886C692.948 120.856 692.722 120.574 692.747 120.322C692.773 120.069 693.05 119.847 693.302 119.877L709.664 121.838C709.916 121.868 710.142 122.15 710.116 122.403C710.091 122.655 709.952 122.766 709.813 122.877Z" fill="#FFFCE9"/>
<path d="M709.429 126.66C709.29 126.771 709.29 126.771 709.038 126.741L692.676 124.781C692.424 124.751 692.198 124.468 692.224 124.216C692.25 123.964 692.527 123.742 692.779 123.772L709.141 125.732C709.393 125.762 709.619 126.045 709.593 126.297C709.567 126.549 709.567 126.549 709.429 126.66Z" fill="#FFFCE9"/>
<path d="M709.159 130.585C709.02 130.696 709.02 130.696 708.769 130.666L692.406 128.705C692.155 128.675 691.929 128.393 691.954 128.14C691.98 127.888 692.258 127.666 692.509 127.696L708.871 129.657C709.123 129.687 709.349 129.969 709.323 130.222C709.185 130.333 709.159 130.585 709.159 130.585Z" fill="#FFFCE9"/>
<path d="M708.632 134.479C708.493 134.59 708.493 134.59 708.241 134.56L691.879 132.599C691.627 132.569 691.401 132.287 691.427 132.035C691.453 131.782 691.73 131.56 691.982 131.591L708.344 133.551C708.596 133.581 708.822 133.864 708.796 134.116C708.909 134.257 708.77 134.368 708.632 134.479Z" fill="#FFFCE9"/>
<path d="M708.249 138.262C708.11 138.373 708.11 138.373 707.858 138.343L691.496 136.383C691.245 136.353 691.019 136.07 691.044 135.818C691.07 135.566 691.347 135.344 691.599 135.374L707.961 137.334C708.213 137.365 708.439 137.647 708.413 137.899C708.388 138.151 708.388 138.151 708.249 138.262Z" fill="#FFFCE9"/>
<path d="M697.134 167.311C696.718 167.644 696.328 167.725 695.85 167.413C689.459 165.115 685.519 158.771 686.326 152.103C687.02 145.293 692.003 140.146 698.702 139.416C699.483 139.255 700.186 139.85 700.109 140.606C700.284 141.393 699.703 142.089 698.948 141.999C693.534 142.627 689.408 146.855 688.843 152.404C688.278 157.953 691.453 163.056 696.61 164.951C697.34 165.294 697.653 165.969 697.463 166.585C697.299 166.948 697.273 167.2 697.134 167.311Z" fill="#FFFCE9"/>
<path d="M704.91 164.796C702.968 166.351 700.436 167.451 697.728 167.765C696.947 167.927 696.244 167.332 696.321 166.575C696.146 165.788 696.727 165.092 697.482 165.183C702.896 164.555 707.022 160.326 707.587 154.777C708.152 149.229 704.977 144.125 699.819 142.231C699.09 141.888 698.777 141.212 698.967 140.597C699.295 139.87 699.963 139.567 700.58 139.769C706.97 142.066 710.911 148.41 710.104 155.079C709.832 159.003 707.823 162.465 704.91 164.796Z" fill="#FFFCE9"/>
<path d="M707.53 145.325C707.391 145.436 707.391 145.436 707.14 145.405L690.778 143.445C690.526 143.415 690.3 143.132 690.326 142.88C690.351 142.628 690.629 142.406 690.88 142.436L707.242 144.397C707.494 144.427 707.72 144.709 707.694 144.961C707.807 145.103 707.669 145.214 707.53 145.325Z" fill="#FFFCE9"/>
<path d="M707.142 149.108C707.003 149.219 707.003 149.219 706.751 149.189L690.641 147.258C690.389 147.228 690.163 146.946 690.189 146.694C690.214 146.441 690.492 146.219 690.744 146.25L707.106 148.21C707.357 148.24 707.583 148.523 707.558 148.775C707.28 148.997 707.28 148.997 707.142 149.108Z" fill="#FFFCE9"/>
<path d="M706.87 153.032C706.731 153.143 706.731 153.143 706.479 153.113L690.117 151.153C689.866 151.123 689.64 150.84 689.665 150.588C689.691 150.336 689.968 150.114 690.22 150.144L706.582 152.104C706.834 152.134 707.06 152.417 707.034 152.669C706.896 152.78 706.87 153.032 706.87 153.032Z" fill="#FFFCE9"/>
<path d="M706.348 156.927C706.21 157.038 706.21 157.038 705.958 157.008L689.735 154.936C689.483 154.906 689.257 154.623 689.283 154.371C689.308 154.119 689.586 153.897 689.837 153.927L706.199 155.888C706.451 155.918 706.677 156.2 706.652 156.452C706.626 156.705 706.487 156.816 706.348 156.927Z" fill="#FFFCE9"/>
<path d="M705.962 160.71C705.823 160.821 705.823 160.821 705.572 160.791L689.461 158.861C689.209 158.83 688.983 158.548 689.009 158.296C689.035 158.044 689.312 157.821 689.564 157.852L705.926 159.812C706.178 159.842 706.404 160.125 706.378 160.377C706.101 160.599 706.101 160.599 705.962 160.71Z" fill="#FFFCE9"/>
<path d="M705.69 164.634C705.552 164.745 705.552 164.745 705.3 164.715L688.938 162.755C688.686 162.725 688.46 162.442 688.486 162.19C688.511 161.938 688.789 161.716 689.04 161.746L705.403 163.706C705.654 163.737 705.88 164.019 705.855 164.271C705.716 164.382 705.69 164.634 705.69 164.634Z" fill="#FFFCE9"/>
<path d="M694.326 193.653C693.91 193.986 693.519 194.067 693.042 193.755C686.651 191.457 682.711 185.113 683.517 178.444C684.211 171.635 689.333 166.376 695.893 165.758C696.674 165.597 697.378 166.192 697.301 166.948C697.475 167.735 696.895 168.431 696.14 168.341C690.725 168.969 686.6 173.197 686.035 178.746C685.469 184.295 688.644 189.398 693.802 191.293C694.531 191.636 694.845 192.311 694.655 192.927C694.629 193.179 694.603 193.431 694.326 193.653Z" fill="#FFFCE9"/>
<path d="M702.238 191.027C700.296 192.581 697.764 193.682 695.056 193.996C694.276 194.158 693.572 193.563 693.649 192.806C693.726 192.049 694.055 191.323 694.81 191.413C700.224 190.786 704.35 186.557 704.915 181.008C705.48 175.459 702.305 170.356 697.148 168.461C696.418 168.119 696.105 167.443 696.295 166.827C696.624 166.101 697.291 165.798 697.908 166C704.299 168.297 708.239 174.641 707.432 181.31C707.021 185.345 705.151 188.695 702.238 191.027Z" fill="#FFFCE9"/>
<path d="M704.858 171.555C704.719 171.666 704.719 171.666 704.468 171.636L688.106 169.676C687.854 169.646 687.628 169.363 687.654 169.111C687.679 168.859 687.957 168.637 688.208 168.667L704.571 170.627C704.822 170.658 705.048 170.94 705.023 171.192C705.136 171.333 704.997 171.444 704.858 171.555Z" fill="#FFFCE9"/>
<path d="M704.471 175.339C704.333 175.45 704.333 175.45 704.081 175.42L687.719 173.459C687.467 173.429 687.241 173.147 687.267 172.894C687.293 172.642 687.57 172.42 687.822 172.45L704.184 174.411C704.436 174.441 704.662 174.723 704.636 174.975C704.61 175.228 704.61 175.228 704.471 175.339Z" fill="#FFFCE9"/>
<path d="M704.198 179.263C704.059 179.374 704.059 179.374 703.808 179.344L687.446 177.384C687.194 177.353 686.968 177.071 686.993 176.819C687.019 176.567 687.297 176.345 687.548 176.375L703.91 178.335C704.162 178.365 704.388 178.648 704.362 178.9C704.337 179.152 704.198 179.263 704.198 179.263Z" fill="#FFFCE9"/>
<path d="M703.675 183.158C703.536 183.269 703.536 183.269 703.284 183.238L686.922 181.278C686.67 181.248 686.444 180.965 686.47 180.713C686.496 180.461 686.773 180.239 687.025 180.269L703.387 182.23C703.639 182.26 703.865 182.542 703.839 182.794C703.813 183.047 703.813 183.047 703.675 183.158Z" fill="#FFFCE9"/>
<path d="M703.288 186.941C703.149 187.052 703.149 187.052 702.898 187.022L686.649 185.202C686.397 185.172 686.171 184.89 686.197 184.638C686.222 184.385 686.5 184.163 686.751 184.193L703.113 186.154C703.365 186.184 703.591 186.467 703.566 186.719C703.427 186.83 703.288 186.941 703.288 186.941Z" fill="#FFFCE9"/>
<path d="M702.88 190.976C702.741 191.087 702.741 191.087 702.489 191.057L686.266 188.986C686.014 188.956 685.788 188.673 685.814 188.421C685.839 188.169 686.117 187.947 686.369 187.977L702.731 189.937C702.982 189.967 703.208 190.25 703.183 190.502C703.157 190.754 703.018 190.865 702.88 190.976Z" fill="#FFFCE9"/>
<g opacity="0.6">
<path opacity="0.6" d="M684.405 174.722C684.302 175.73 683.192 176.619 682.185 176.498C681.178 176.377 680.274 175.248 680.377 174.239L686.774 111.436C686.876 110.427 687.986 109.539 688.993 109.66C690 109.78 690.904 110.91 690.801 111.919L684.405 174.722Z" fill="#1F026B"/>
</g>
<g opacity="0.6">
<path opacity="0.6" d="M682.942 182.843C683.785 182.169 683.911 180.927 683.224 180.069C682.538 179.211 681.298 179.063 680.455 179.737C679.613 180.412 679.486 181.654 680.173 182.511C680.859 183.369 682.099 183.518 682.942 182.843Z" fill="#1F026B"/>
</g>
<g opacity="0.6">
<path opacity="0.6" d="M681.81 187.686C682.269 187.318 682.338 186.641 681.964 186.173C681.589 185.705 680.913 185.624 680.453 185.992C679.994 186.36 679.925 187.037 680.299 187.505C680.674 187.973 681.35 188.054 681.81 187.686Z" fill="#1F026B"/>
</g>
</g>
<g clip-path="url(#clip2_544_19)">
<path d="M247.714 38.5887C245.584 47.1119 246.354 53.6948 238.084 64.7772C235.948 68.8859 242.155 70.4271 244.696 67.2292C247.821 62.2225 249.638 51.9449 250.686 38.5701H264.217L262.355 60.8805C262.022 72.7603 278.278 70.6044 282.194 59.5474H280.938C273.33 70.59 266.269 64.3227 267.018 55.9656L268.663 38.6444L282.339 38.4966V34.4709H248.656C239.755 34.7121 237.428 35.2559 235.148 38.5781L231.453 44.0365L232.71 44.1104C235.396 40.3441 238.129 38.4938 242.943 38.4938L247.714 38.5887Z" fill="#698DA5"/>
</g>
<g clip-path="url(#clip3_544_19)">
<path d="M852.45 206.676C840.636 206.676 831.058 213.778 831.058 222.538C831.058 229.185 836.572 234.878 844.394 237.237L844.671 240.04H833.975C828.055 239.792 828.636 237.744 828.464 235.664H827.168V240.039V246.329H845.291H845.967H847.236L846.389 237.753L846.265 236.494L846.182 235.664L846.181 235.655C840.343 233.505 836.243 228.441 836.243 222.537C836.243 214.683 843.499 208.316 852.449 208.316C861.399 208.316 868.655 214.683 868.655 222.537C868.655 228.441 864.555 233.505 858.716 235.655L858.715 235.664L858.509 237.753L857.662 246.329H858.932H859.607H877.73V240.039V235.664H876.434C876.263 237.744 876.843 239.79 870.924 240.039H860.228L860.505 237.236C868.327 234.877 873.841 229.184 873.841 222.537C873.841 213.777 864.264 206.675 852.449 206.675L852.45 206.676Z" fill="#698DA5" stroke="#698DA5" stroke-width="0.12341" stroke-linecap="round" stroke-linejoin="round" stroke-dasharray="0.25 0.12"/>
<g filter="url(#filter0_f_544_19)">
<path d="M852.974 207.871C848.517 207.871 844.487 209.457 841.557 212.012C844.435 209.717 848.253 208.314 852.448 208.314C861.399 208.314 868.658 214.684 868.658 222.538C868.658 226.413 866.893 229.925 864.029 232.49C867.198 229.894 869.184 226.199 869.184 222.095C869.184 214.241 861.924 207.871 852.974 207.871ZM836.469 212.005C833.107 214.807 831.06 218.493 831.06 222.538C831.06 229.186 836.575 234.881 844.397 237.24L844.627 239.595H845.193L844.922 236.797C837.101 234.439 831.586 228.744 831.586 222.096C831.586 218.263 833.418 214.748 836.469 212.006L836.469 212.005ZM868.692 232.857C866.576 234.554 863.967 235.912 861.034 236.797L861.01 237.081C863.985 236.117 866.606 234.66 868.692 232.857L868.692 232.857ZM859.22 235.461C859.054 235.528 858.889 235.592 858.72 235.654V235.661L858.515 237.753L857.661 246.333H858.933H859.606H877.736V245.89H860.131H859.458H858.186L859.04 237.309L859.22 235.461L859.22 235.461ZM827.168 235.662V240.039V246.334H845.29H845.963H847.235L847.194 245.89H846.488H845.815H827.693V239.596V235.662H827.168H827.168ZM876.436 235.662C876.346 236.759 876.456 237.848 875.722 238.668C876.888 237.92 876.881 236.814 876.937 235.662H876.436Z" fill="#FEFEFE"/>
<path d="M852.974 207.871C848.517 207.871 844.487 209.457 841.557 212.012C844.435 209.717 848.253 208.314 852.448 208.314C861.399 208.314 868.658 214.684 868.658 222.538C868.658 226.413 866.893 229.925 864.029 232.49C867.198 229.894 869.184 226.199 869.184 222.095C869.184 214.241 861.924 207.871 852.974 207.871ZM836.469 212.005C833.107 214.807 831.06 218.493 831.06 222.538C831.06 229.186 836.575 234.881 844.397 237.24L844.627 239.595H845.193L844.922 236.797C837.101 234.439 831.586 228.744 831.586 222.096C831.586 218.263 833.418 214.748 836.469 212.006L836.469 212.005ZM868.692 232.857C866.576 234.554 863.967 235.912 861.034 236.797L861.01 237.081C863.985 236.117 866.606 234.66 868.692 232.857L868.692 232.857ZM859.22 235.461C859.054 235.528 858.889 235.592 858.72 235.654V235.661L858.515 237.753L857.661 246.333H858.933H859.606H877.736V245.89H860.131H859.458H858.186L859.04 237.309L859.22 235.461L859.22 235.461ZM827.168 235.662V240.039V246.334H845.29H845.963H847.235L847.194 245.89H846.488H845.815H827.693V239.596V235.662H827.168H827.168ZM876.436 235.662C876.346 236.759 876.456 237.848 875.722 238.668C876.888 237.92 876.881 236.814 876.937 235.662H876.436Z" stroke="#698DA5" stroke-width="0.12341" stroke-linecap="round" stroke-linejoin="round" stroke-dasharray="0.25 0.12"/>
</g>
</g>
<path d="M91.9258 679.577V680.934C93.7704 680.934 95.092 681.191 95.8859 681.697C96.6798 682.239 97.0814 683.218 97.0814 684.631V715.012C97.0814 716.173 96.6798 717.006 95.8859 717.516C95.092 718.021 93.7704 718.274 91.9258 718.274V719.687H105.651V718.274C103.769 718.274 102.433 718.021 101.635 717.516C100.878 717.006 100.495 716.173 100.495 715.012V684.631C100.495 683.218 100.878 682.239 101.635 681.697C102.396 681.191 103.731 680.934 105.651 680.934V679.577H91.9258V679.577ZM135.534 679.633V681.046C138.065 681.046 139.639 681.318 140.251 681.86C140.792 682.333 140.811 683.311 140.307 684.795L129.622 714.418L118.503 683.653C118.106 682.53 118.25 681.804 118.937 681.481C119.553 681.191 121.09 681.046 123.546 681.046V679.633H109.447V681.046C111.287 681.046 112.646 681.318 113.515 681.86C114.127 682.258 114.636 682.984 115.033 684.032L128.155 720.614H129.08L142.044 684.958C142.585 683.255 143.197 682.188 143.884 681.753C144.538 681.28 145.822 681.046 147.736 681.046V679.633H135.534V679.633Z" fill="#698DA5"/>
<g clip-path="url(#clip4_544_19)">
<path d="M644.012 578.641V699.317H351.434C318.099 699.317 290.977 672.249 290.977 638.979C290.977 605.71 318.098 578.641 351.434 578.641H644.012Z" fill="#F2F2F2"/>
<path d="M650.431 699.627C650.43 700.842 649.956 702.008 649.111 702.867C648.267 703.726 647.122 704.209 645.927 704.21H344.65C328.287 704.21 312.594 697.595 301.024 685.821C289.453 674.046 282.953 658.077 282.953 641.425C282.953 624.774 289.453 608.805 301.024 597.03C312.594 585.256 328.287 578.641 344.65 578.641H645.927C647.122 578.641 648.267 579.124 649.112 579.983C649.956 580.843 650.431 582.008 650.431 583.224C650.431 584.439 649.956 585.605 649.112 586.464C648.267 587.324 647.122 587.807 645.927 587.807H344.65C330.676 587.807 317.274 593.456 307.392 603.511C297.511 613.567 291.96 627.205 291.96 641.425C291.96 655.646 297.511 669.284 307.392 679.34C317.274 689.395 330.676 695.044 344.65 695.044H645.927C647.122 695.045 648.267 695.528 649.111 696.387C649.956 697.246 650.43 698.412 650.431 699.627Z" fill="#244D8A"/>
<path d="M643.124 607.995H333.58C333.345 607.995 333.12 607.909 332.954 607.756C332.789 607.603 332.695 607.396 332.695 607.18C332.695 606.963 332.789 606.756 332.954 606.603C333.12 606.45 333.345 606.364 333.58 606.364H643.124C643.358 606.364 643.583 606.45 643.749 606.603C643.915 606.756 644.008 606.963 644.008 607.18C644.008 607.396 643.915 607.603 643.749 607.756C643.583 607.909 643.358 607.995 643.124 607.995Z" fill="#B2C2CD"/>
<path d="M643.124 630.826H333.58C333.345 630.826 333.12 630.74 332.954 630.587C332.789 630.434 332.695 630.226 332.695 630.01C332.695 629.794 332.789 629.587 332.954 629.434C333.12 629.281 333.345 629.195 333.58 629.195H643.124C643.358 629.195 643.583 629.281 643.749 629.434C643.915 629.587 644.008 629.794 644.008 630.01C644.008 630.226 643.915 630.434 643.749 630.587C643.583 630.74 643.358 630.826 643.124 630.826Z" fill="#B2C2CD"/>
<path d="M643.124 653.656H333.58C333.345 653.656 333.12 653.57 332.954 653.417C332.789 653.264 332.695 653.057 332.695 652.841C332.695 652.625 332.789 652.417 332.954 652.264C333.12 652.111 333.345 652.025 333.58 652.025H643.124C643.358 652.025 643.583 652.111 643.749 652.264C643.915 652.417 644.008 652.625 644.008 652.841C644.008 653.057 643.915 653.264 643.749 653.417C643.583 653.57 643.358 653.656 643.124 653.656Z" fill="#B2C2CD"/>
<path d="M643.124 674.856H333.58C333.345 674.856 333.12 674.77 332.954 674.617C332.789 674.464 332.695 674.257 332.695 674.041C332.695 673.824 332.789 673.617 332.954 673.464C333.12 673.311 333.345 673.225 333.58 673.225H643.124C643.358 673.225 643.583 673.311 643.749 673.464C643.915 673.617 644.008 673.824 644.008 674.041C644.008 674.257 643.915 674.464 643.749 674.617C643.583 674.77 643.358 674.856 643.124 674.856Z" fill="#B2C2CD"/>
<path d="M535.692 568.279L526.89 568.278L522.703 527.475L535.695 527.477L535.692 568.279Z" fill="#FFB8B8"/>
<path d="M520.599 565.255H537.576V578.1H509.91C509.91 576.413 510.187 574.743 510.724 573.185C511.261 571.626 512.048 570.21 513.041 569.017C514.033 567.825 515.212 566.878 516.509 566.233C517.806 565.587 519.196 565.255 520.599 565.255V565.255Z" fill="#2F2E41"/>
<path d="M445.759 568.279L436.956 568.278L432.77 527.475L445.762 527.477L445.759 568.279Z" fill="#FFB8B8"/>
<path d="M430.67 565.255H447.646V578.1H419.98C419.98 576.413 420.257 574.743 420.794 573.185C421.331 571.626 422.119 570.21 423.111 569.017C424.104 567.825 425.282 566.878 426.579 566.233C427.876 565.587 429.266 565.255 430.67 565.255V565.255Z" fill="#2F2E41"/>
<path d="M475.16 265.616V260.99C475.16 253.075 477.776 245.485 482.433 239.888C487.09 234.292 493.407 231.148 499.993 231.148H499.993C506.579 231.148 512.895 234.292 517.552 239.888C522.209 245.485 524.825 253.075 524.825 260.99V265.616C524.825 271.322 522.939 276.794 519.582 280.829C516.224 284.863 511.671 287.13 506.923 287.13H493.063C490.712 287.13 488.384 286.574 486.212 285.492C484.04 284.411 482.066 282.826 480.404 280.829C478.741 278.831 477.423 276.459 476.523 273.849C475.623 271.239 475.16 268.441 475.16 265.616V265.616Z" fill="black"/>
<path d="M499.994 288.722C510.439 288.722 518.906 278.547 518.906 265.995C518.906 253.443 510.439 243.268 499.994 243.268C489.549 243.268 481.082 253.443 481.082 265.995C481.082 278.547 489.549 288.722 499.994 288.722Z" fill="#FFB8B8"/>
<path d="M397.126 344.104C397.894 343.233 398.811 342.575 399.813 342.176C400.815 341.778 401.877 341.647 402.926 341.795C403.974 341.943 404.982 342.366 405.88 343.033C406.778 343.7 407.543 344.596 408.122 345.656L424.334 341.971L428.6 353.264L405.645 358.082C404.098 359.132 402.283 359.464 400.546 359.014C398.809 358.563 397.269 357.363 396.219 355.64C395.169 353.917 394.681 351.791 394.849 349.665C395.016 347.539 395.826 345.56 397.126 344.104V344.104Z" fill="#FFB8B8"/>
<path d="M485.618 303.617L485.618 303.617C485.625 303.611 485.631 303.606 485.638 303.601C486.71 302.757 487.941 302.264 489.211 302.165C490.489 302.065 491.768 302.366 492.925 303.042C494.083 303.719 495.079 304.75 495.813 306.038C496.546 307.325 496.989 308.824 497.097 310.385C497.2 311.944 496.966 313.508 496.419 314.924C495.871 316.34 495.03 317.556 493.981 318.458L464.115 343.994L464.115 343.994C462.441 345.428 460.543 346.431 458.539 346.945L458.539 346.945L416.32 357.82C416.32 357.82 416.32 357.82 416.32 357.82C415.993 357.904 415.656 357.905 415.329 357.823C415.001 357.741 414.688 357.577 414.411 357.337C414.133 357.098 413.897 356.789 413.72 356.428C413.543 356.067 413.43 355.664 413.389 355.245L412.411 345.116C412.411 345.116 412.411 345.116 412.411 345.116C412.344 344.417 412.482 343.714 412.796 343.129C413.11 342.544 413.577 342.119 414.109 341.914C414.109 341.914 414.109 341.914 414.109 341.914L458.968 324.7L459.003 324.686L459.033 324.662L485.386 303.8L485.618 303.617Z" fill="#7192BA" stroke="black" stroke-width="0.5"/>
<path d="M527.048 556.7C526.372 556.7 525.711 556.464 525.145 556.02C524.579 555.576 524.133 554.944 523.862 554.2L483.506 434.37C483.412 434.11 483.253 433.891 483.053 433.743C482.852 433.594 482.618 433.523 482.382 433.539C482.147 433.555 481.921 433.657 481.735 433.832C481.549 434.007 481.413 434.246 481.343 434.517L448.419 551.175C448.28 551.718 448.05 552.221 447.744 552.653C447.437 553.086 447.06 553.438 446.636 553.688C446.212 553.939 445.749 554.083 445.277 554.11C444.805 554.138 444.333 554.05 443.891 553.851L432.85 548.875C432.251 548.608 431.725 548.146 431.331 547.54C430.937 546.935 430.691 546.211 430.619 545.447C425.652 493.451 468.965 362.206 469.404 360.887L469.525 360.521L509.008 371.017L509.09 371.124C524.843 391.776 537.791 522.028 540.227 547.929C540.317 548.865 540.14 549.809 539.724 550.608C539.308 551.406 538.679 552.011 537.939 552.321L528.193 556.463C527.826 556.62 527.438 556.7 527.048 556.7Z" fill="#1F026B"/>
<path d="M469.75 363.407L469.75 363.407L469.709 363.29L469.763 363.183C469.763 363.183 469.763 363.183 469.763 363.183C471.063 360.62 472.573 357.151 473.528 354.112C474.006 352.595 474.348 351.173 474.453 350.02C474.506 349.443 474.5 348.923 474.417 348.487C474.333 348.052 474.168 347.677 473.882 347.423L473.882 347.423C470.333 344.269 468.581 339.056 468.736 331.861C469.073 316.246 477.926 302.409 490.726 297.405C494.319 296.024 497.975 294.893 501.676 294.017L501.677 294.017C504.341 293.371 507.089 293.442 509.728 294.225C512.366 295.008 514.832 296.485 516.946 298.553L516.946 298.554C519.087 300.636 520.821 303.265 522.02 306.255C523.219 309.244 523.853 312.517 523.874 315.838L523.874 315.838C524.01 332.608 521.858 355.905 510.897 371.879C510.412 372.578 509.746 373.038 509.022 373.194L509.022 373.194C503.742 374.342 498.391 374.943 493.027 374.991C488.26 374.991 483.239 374.419 479.01 372.682C474.786 370.946 471.362 368.054 469.75 363.407Z" fill="#7192BA" stroke="black" stroke-width="0.5"/>
<path d="M489.467 374.613C489.988 372.369 491.225 370.462 492.908 369.308C494.592 368.153 496.587 367.844 498.46 368.447C498.842 368.575 499.215 368.741 499.575 368.943L511.884 355.481L520.445 362.411L502.842 381.132C502.047 382.854 500.795 384.207 499.287 384.976C497.778 385.745 496.098 385.886 494.515 385.376C493.593 385.072 492.73 384.553 491.977 383.846C491.223 383.14 490.593 382.261 490.124 381.26C489.654 380.259 489.354 379.156 489.242 378.015C489.129 376.875 489.206 375.718 489.467 374.613V374.613Z" fill="#FFB8B8"/>
<path d="M509.935 374.534H509.935C509.208 374.535 508.495 374.233 507.919 373.667L507.919 373.666L503.065 368.899C502.687 368.529 502.382 368.057 502.173 367.518C501.965 366.979 501.86 366.389 501.868 365.792C501.875 365.195 501.995 364.61 502.217 364.079C502.439 363.548 502.757 363.089 503.143 362.733L502.974 362.55L503.143 362.733L523.503 343.968L523.503 343.967C523.794 343.699 523.976 343.312 524.022 342.897C524.069 342.481 523.979 342.056 523.764 341.713L523.763 341.713L511.197 321.748L511.197 321.747C509.765 319.481 509.045 316.674 509.168 313.823C509.291 310.973 510.249 308.272 511.866 306.198L511.669 306.045L511.867 306.197C513.569 303.988 515.89 302.64 518.364 302.402C520.832 302.165 523.292 303.048 525.257 304.89L525.314 304.963L538.428 327.527L538.446 327.559L538.472 327.584C539.863 328.894 540.986 330.575 541.75 332.499C542.515 334.424 542.899 336.536 542.873 338.671C542.846 340.806 542.41 342.903 541.598 344.799C540.786 346.694 539.623 348.335 538.201 349.594L538.201 349.594L538.198 349.597L511.832 373.781C511.831 373.781 511.83 373.782 511.83 373.782C511.275 374.274 510.611 374.534 509.935 374.534Z" fill="#7192BA" stroke="black" stroke-width="0.5"/>
<path d="M483.242 259.602V248.325L499.994 239.535L515.967 248.325V259.602C515.967 260.092 515.805 260.563 515.516 260.91C515.227 261.257 514.836 261.452 514.427 261.452H484.782C484.374 261.452 483.982 261.257 483.693 260.91C483.404 260.563 483.242 260.092 483.242 259.602Z" fill="black"/>
<path d="M499.225 232.644C496.762 223.17 501.935 212.312 509.582 208.562C517.229 204.812 526.378 207.434 532.831 213.629C539.284 219.825 543.288 229.105 545.409 238.697C547.53 248.29 547.933 258.293 548.325 268.207C557.72 270.281 564.112 283.673 560.857 294.466C557.602 305.259 545.555 310.621 537.235 304.98C528.915 299.339 526.505 284.174 532.51 275.246C535.351 271.021 536.938 265.778 537.02 260.347C537.102 254.916 535.673 249.607 532.961 245.262C530.248 240.917 526.407 237.783 522.045 236.357C517.683 234.932 513.051 235.296 508.88 237.391C504.25 239.718 498.439 233.672 499.225 232.644Z" fill="black"/>
<path d="M393.654 300.362C382.405 300.273 371.296 297.349 361.046 291.78C360.436 291.453 359.918 290.92 359.555 290.245C359.193 289.571 359.001 288.785 359.004 287.982V254.284C359.005 253.18 359.37 252.121 360.02 251.341C360.67 250.56 361.55 250.121 362.469 250.12H424.839C425.758 250.121 426.638 250.56 427.288 251.341C427.937 252.121 428.303 253.18 428.304 254.284V287.982C428.307 288.785 428.115 289.571 427.753 290.245C427.39 290.92 426.872 291.453 426.262 291.78C416.012 297.349 404.903 300.273 393.654 300.362V300.362Z" fill="#1F026B"/>
<path d="M393.642 273.062C393.179 273.063 392.722 272.952 392.295 272.737L342.837 247.661C342.199 247.338 341.656 246.792 341.279 246.095C340.902 245.397 340.707 244.58 340.719 243.748C340.732 242.917 340.952 242.109 341.35 241.428C341.749 240.748 342.307 240.227 342.955 239.932L392.414 217.384C393.211 217.019 394.091 217.021 394.887 217.39L443.683 239.938C444.327 240.235 444.882 240.757 445.277 241.435C445.673 242.114 445.891 242.919 445.904 243.748C445.917 244.576 445.723 245.39 445.349 246.086C444.974 246.782 444.436 247.327 443.802 247.653L395.005 272.729C394.574 272.949 394.11 273.063 393.642 273.062Z" fill="#1F026B"/>
<path opacity="0.2" d="M443.267 242.622L394.47 267.697C394.089 267.893 393.68 267.994 393.266 267.996C392.853 267.997 392.443 267.898 392.062 267.704L342.603 242.629C341.982 242.322 341.464 241.775 341.13 241.074C340.912 241.528 340.777 242.033 340.734 242.555C340.691 243.077 340.74 243.604 340.88 244.102C341.019 244.599 341.245 245.055 341.542 245.439C341.839 245.823 342.201 246.127 342.603 246.331L392.062 271.406C392.443 271.599 392.853 271.698 393.266 271.697C393.68 271.696 394.089 271.594 394.47 271.399L443.267 246.323C443.667 246.118 444.027 245.813 444.322 245.429C444.617 245.044 444.841 244.589 444.979 244.093C445.117 243.597 445.165 243.071 445.122 242.551C445.078 242.03 444.943 241.527 444.726 241.074C444.395 241.769 443.882 242.313 443.267 242.622V242.622Z" fill="black"/>
<path d="M364.461 287.027C364.666 287.027 364.861 286.929 365.006 286.756C365.15 286.582 365.231 286.347 365.231 286.102V255.139L390.627 244.021C390.831 244.025 391.028 243.931 391.175 243.76C391.321 243.589 391.405 243.355 391.408 243.11C391.411 242.864 391.333 242.627 391.191 242.451C391.049 242.275 390.854 242.174 390.65 242.171L365.254 253.288C365.05 253.283 364.847 253.327 364.657 253.418C364.467 253.51 364.295 253.647 364.151 253.821C364.005 253.992 363.889 254.198 363.81 254.424C363.731 254.65 363.691 254.894 363.691 255.139V286.102C363.691 286.347 363.773 286.582 363.917 286.756C364.061 286.929 364.257 287.027 364.461 287.027Z" fill="#91D7C5"/>
<path d="M364.416 292.185C366.229 292.185 367.699 290.715 367.699 288.902C367.699 287.089 366.229 285.619 364.416 285.619C362.603 285.619 361.133 287.089 361.133 288.902C361.133 290.715 362.603 292.185 364.416 292.185Z" fill="#91D7C5"/>
</g>
<path d="M841.131 641H836.33L850.216 603.182H854.943L868.83 641H864.028L852.727 609.165H852.432L841.131 641ZM842.903 626.227H862.256V630.29H842.903V626.227Z" fill="#698DA5"/>
</g>
<g clip-path="url(#clip5_544_19)">
<path d="M110.489 177.569L121.254 131.669C122.186 127.693 125.76 125.1 129.196 125.905L212.585 145.463C216.02 146.268 218.069 150.18 217.136 154.156L206.371 200.056L110.489 177.569Z" fill="#0E2444"/>
<path d="M206.37 200.057L186.187 286.118C185.254 290.093 181.681 292.687 178.245 291.881L94.8557 272.324C91.4198 271.518 89.3721 267.606 90.3045 263.631L110.488 177.569L206.37 200.057Z" fill="#06162E"/>
<path d="M101.802 175.532L112.566 129.632C113.499 125.656 117.073 123.063 120.508 123.868L203.897 143.426C207.333 144.231 209.381 148.143 208.449 152.119L197.684 198.019L101.802 175.532Z" fill="#1F026B"/>
<path d="M200.219 152.095L119.953 133.27L111.731 168.328L191.997 187.153L200.219 152.095Z" fill="#333E48"/>
<path d="M197.683 198.019L177.499 284.08C176.567 288.056 172.992 290.649 169.557 289.844L86.1682 270.287C82.7327 269.481 80.6846 265.569 81.617 261.593L101.801 175.532L197.683 198.019Z" fill="#1F026B"/>
<path d="M126.523 206.877C126.057 208.865 124.27 210.162 122.552 209.759L106.208 205.925C104.49 205.523 103.466 203.567 103.932 201.579L106.246 191.714C106.712 189.726 108.499 188.429 110.217 188.832L126.561 192.665C128.279 193.068 129.303 195.024 128.837 197.012C128.836 197.012 126.523 206.877 126.523 206.877Z" fill="#FEFFFF"/>
<path d="M155.359 213.64C154.893 215.628 153.106 216.925 151.388 216.522L135.044 212.689C133.327 212.286 132.302 210.33 132.768 208.342L135.082 198.477C135.548 196.489 137.335 195.192 139.053 195.595L155.398 199.428C157.115 199.831 158.139 201.787 157.673 203.775L155.359 213.64L155.359 213.64Z" fill="#FEFFFF"/>
<path d="M184.194 220.403C183.728 222.39 181.941 223.687 180.224 223.284L163.88 219.451C162.162 219.048 161.138 217.092 161.604 215.105L163.918 205.239C164.384 203.251 166.171 201.955 167.888 202.357L184.233 206.191C185.95 206.593 186.974 208.549 186.508 210.537L184.194 220.403Z" fill="#FEFFFF"/>
<path d="M120.258 233.584C119.791 235.572 118.004 236.868 116.287 236.466L99.9424 232.632C98.2243 232.229 97.2006 230.273 97.6668 228.286L99.9805 218.42C100.447 216.433 102.233 215.136 103.951 215.539L120.296 219.372C122.013 219.775 123.037 221.731 122.571 223.719C122.571 223.718 120.257 233.584 120.258 233.584Z" fill="#FEFFFF"/>
<path d="M149.097 240.347C148.631 242.335 146.844 243.632 145.127 243.229L128.782 239.396C127.065 238.993 126.04 237.037 126.507 235.049L128.82 225.184C129.287 223.196 131.073 221.899 132.791 222.302L149.136 226.135C150.854 226.538 151.878 228.494 151.411 230.482L149.098 240.347L149.097 240.347Z" fill="#FEFFFF"/>
<path d="M113.996 260.291C113.53 262.279 111.743 263.576 110.025 263.173L93.6807 259.34C91.9626 258.937 90.9389 256.981 91.4051 254.993L93.7188 245.128C94.185 243.14 95.9712 241.843 97.6896 242.246L114.034 246.079C115.751 246.482 116.776 248.438 116.309 250.426C116.309 250.426 113.995 260.291 113.996 260.291Z" fill="#FEFFFF"/>
<path d="M142.832 267.055C142.366 269.042 140.579 270.339 138.861 269.936L122.517 266.103C120.799 265.7 119.775 263.744 120.241 261.756L122.555 251.891C123.021 249.903 124.808 248.607 126.526 249.009L142.87 252.843C144.588 253.246 145.612 255.202 145.146 257.189L142.832 267.055L142.832 267.055Z" fill="#FEFFFF"/>
<path d="M149.083 268.52C148.617 270.508 149.64 272.464 151.358 272.867L167.702 276.7C169.419 277.103 171.207 275.806 171.673 273.818L180.25 237.246C180.716 235.258 179.692 233.302 177.975 232.899L161.631 229.066C159.913 228.663 158.126 229.96 157.66 231.948L149.083 268.52Z" fill="#91D7C5"/>
<path d="M189.349 176.437L187.166 177.885L185.854 175.617L189.588 159.697L191.771 158.249L193.083 160.517L189.349 176.437Z" fill="white"/>
<path d="M178.618 173.92L176.434 175.368L175.124 173.101L178.857 157.181L181.039 155.732L182.351 158L178.618 173.92Z" fill="white"/>
<path d="M183.12 157.701L181.721 155.24L184.069 153.657L189.985 155.044L191.384 157.506L189.037 159.089L183.12 157.701Z" fill="white"/>
<path d="M179.174 174.529L176.826 176.112L178.226 178.574L184.142 179.961L186.489 178.378L185.091 175.917L179.174 174.529Z" fill="white"/>
<path d="M171.65 172.285L169.467 173.733L168.155 171.465L171.888 155.545L174.072 154.097L175.384 156.365L171.65 172.285Z" fill="white"/>
<path d="M160.914 169.767L158.732 171.216L157.42 168.948L161.154 153.028L163.337 151.58L164.648 153.848L160.914 169.767Z" fill="white"/>
<path d="M165.417 153.548L164.018 151.087L166.365 149.504L172.282 150.891L173.681 153.353L171.333 154.936L165.417 153.548Z" fill="white"/>
<path d="M161.471 170.376L159.123 171.959L160.522 174.421L166.438 175.809L168.786 174.226L167.387 171.764L161.471 170.376Z" fill="white"/>
<path d="M153.947 168.133L151.764 169.582L150.452 167.314L154.185 151.394L156.369 149.946L157.68 152.214L153.947 168.133Z" fill="white"/>
<path d="M147.714 149.398L146.315 146.936L148.662 145.353L154.579 146.741L155.978 149.203L153.631 150.785L147.714 149.398Z" fill="white"/>
</g>
<path d="M110.043 502.232H93.8772C88.5275 502.237 83.2294 501.145 78.2861 499.021C73.3429 496.896 68.8514 493.78 65.0685 489.85C61.2857 485.921 58.2858 481.255 56.2404 476.12C54.1951 470.985 53.1444 465.482 53.1484 459.925V429.968C53.1484 429.398 53.3661 428.853 53.7535 428.45C54.141 428.048 54.6664 427.822 55.2143 427.822H99.7959C100.344 427.822 100.869 428.048 101.257 428.45C101.644 428.853 101.862 429.398 101.862 429.968C101.862 430.537 101.644 431.083 101.257 431.485C100.869 431.887 100.344 432.114 99.7959 432.114H57.2802V459.925C57.2775 464.918 58.2222 469.863 60.0604 474.476C61.8987 479.09 64.5943 483.282 67.9931 486.812C71.392 490.343 75.4275 493.143 79.8689 495.052C84.3103 496.962 89.0704 497.943 93.8772 497.94H110.043C110.591 497.94 111.116 498.167 111.503 498.569C111.891 498.971 112.109 499.517 112.109 500.086C112.109 500.656 111.891 501.201 111.503 501.604C111.116 502.006 110.591 502.232 110.043 502.232Z" fill="#F08000"/>
<path d="M183.536 502.232H167.081C166.534 502.232 166.008 502.006 165.621 501.604C165.233 501.201 165.016 500.656 165.016 500.086C165.016 499.517 165.233 498.971 165.621 498.569C166.008 498.167 166.534 497.94 167.081 497.94H183.536C188.343 497.943 193.103 496.962 197.544 495.052C201.986 493.143 206.021 490.343 209.42 486.812C212.819 483.282 215.515 479.09 217.353 474.476C219.191 469.863 220.136 464.918 220.133 459.925V432.114H186.852C186.304 432.114 185.779 431.887 185.391 431.485C185.004 431.083 184.786 430.537 184.786 429.968C184.786 429.398 185.004 428.853 185.391 428.45C185.779 428.048 186.304 427.822 186.852 427.822H222.199C222.747 427.822 223.272 428.048 223.66 428.45C224.047 428.853 224.265 429.398 224.265 429.968V459.925C224.269 465.482 223.218 470.985 221.173 476.12C219.128 481.255 216.128 485.921 212.345 489.85C208.562 493.78 204.07 496.896 199.127 499.021C194.184 501.145 188.886 502.237 183.536 502.232V502.232Z" fill="#F08000"/>
<path d="M147.187 506.589H130.227V546.506H147.187V506.589Z" fill="#F4C23F"/>
<path d="M112.597 449.936C114.229 447.607 112.163 443.229 113.041 440.429C113.919 437.629 118.061 435.461 118.061 432.478C118.061 429.495 113.878 427.21 113.041 424.517C112.204 421.824 114.229 417.339 112.597 415.01C110.965 412.682 106.296 413.358 104.023 411.641C101.751 409.924 100.997 405.128 98.3008 404.216C95.6049 403.304 92.3408 406.727 89.4589 406.727C86.577 406.727 83.2199 403.336 80.6273 404.216C78.0346 405.096 77.1359 409.946 74.8945 411.641C72.653 413.336 67.9738 412.66 66.3211 415.01C64.6684 417.36 66.7549 421.716 65.8873 424.517C65.0196 427.317 60.8672 429.485 60.8672 432.478C60.8672 435.472 65.0403 437.736 65.8873 440.429C66.7343 443.122 64.6994 447.607 66.3211 449.936C67.0442 450.966 68.356 451.416 69.7814 451.738L65.9699 460.547C65.8494 460.82 65.8046 461.122 65.8405 461.419C65.8764 461.717 65.9916 461.998 66.1731 462.231C66.3546 462.464 66.5951 462.64 66.8677 462.739C67.1402 462.837 67.4339 462.855 67.7156 462.79L73.1178 461.588C73.4407 461.516 73.7772 461.554 74.0782 461.695C74.3792 461.836 74.629 462.073 74.7912 462.371L77.5181 467.371C77.6591 467.632 77.8672 467.846 78.119 467.991C78.3708 468.136 78.6564 468.205 78.9438 468.19C79.2311 468.176 79.509 468.078 79.7461 467.909C79.9832 467.74 80.1703 467.505 80.2864 467.232L83.1786 460.558C85.2238 459.85 87.4653 458.219 89.4589 458.219C91.4525 458.219 93.6939 459.85 95.7391 460.558L98.6314 467.232C98.7492 467.505 98.9375 467.739 99.1754 467.908C99.4134 468.076 99.6917 468.173 99.9794 468.188C100.267 468.202 100.553 468.134 100.806 467.989C101.058 467.845 101.267 467.631 101.41 467.371L104.127 462.371C104.289 462.071 104.541 461.832 104.844 461.691C105.147 461.55 105.486 461.514 105.81 461.588L111.213 462.79C111.493 462.851 111.785 462.83 112.056 462.73C112.326 462.63 112.565 462.455 112.745 462.223C112.926 461.991 113.041 461.712 113.079 461.416C113.116 461.121 113.075 460.82 112.958 460.547L109.136 451.738C110.572 451.416 111.874 450.966 112.597 449.936Z" fill="#F4C23F"/>
<path d="M130.227 514.046C135.845 514.976 141.569 514.976 147.187 514.046V506.589H130.227V514.046Z" fill="#F4A93F"/>
<path d="M90.5625 418.111H177.329C179.858 418.111 182.283 419.155 184.071 421.012C185.859 422.869 186.863 425.388 186.863 428.015V459.904C186.863 466.472 185.618 472.976 183.197 479.045C180.777 485.113 177.23 490.627 172.758 495.271C168.286 499.915 162.978 503.598 157.135 506.111C151.293 508.624 145.031 509.916 138.708 509.915V509.915C125.939 509.915 113.693 504.646 104.664 495.267C95.6349 485.888 90.5625 473.167 90.5625 459.904V418.111Z" fill="#F4C23F"/>
<path d="M153.014 502.136C126.426 502.136 104.869 479.743 104.869 452.124V418.111H90.5625V459.904C90.5625 487.522 112.12 509.915 138.708 509.915C149.236 509.933 159.477 506.347 167.847 499.711C163.056 501.324 158.05 502.143 153.014 502.136V502.136Z" fill="#F4A93F"/>
<path d="M117.884 418.111H90.5625V459.904C90.5625 461.127 90.6038 462.339 90.6864 463.53L91.5231 463.938L92.2565 464.292L94.3947 469.217C94.8643 470.304 95.615 471.234 96.5631 471.904C97.5112 472.573 98.6197 472.957 99.7652 473.011C100.911 473.066 102.048 472.789 103.051 472.212C104.055 471.635 104.884 470.78 105.447 469.743L107.048 466.803L110.23 467.511C110.661 467.605 111.101 467.652 111.541 467.65V467.65C112.577 467.651 113.597 467.381 114.507 466.867C115.417 466.352 116.188 465.609 116.75 464.705C117.312 463.801 117.647 462.765 117.724 461.692C117.801 460.619 117.618 459.543 117.192 458.562L115.239 454.056C115.65 453.669 116.024 453.241 116.355 452.779C118.349 449.936 117.935 446.599 117.636 444.163C117.553 443.455 117.429 442.403 117.46 441.953C117.687 441.577 118.338 440.869 118.782 440.375C120.435 438.573 122.708 436.084 122.708 432.478C122.708 428.873 120.435 426.373 118.782 424.571C118.338 424.077 117.687 423.369 117.46 423.004C117.429 422.543 117.553 421.502 117.636 420.783C117.718 420.064 117.853 419.066 117.884 418.111Z" fill="#F4A93F"/>
<path d="M167.082 555.548H110.332L115.362 548.005C115.671 547.542 116.083 547.163 116.563 546.901C117.043 546.639 117.578 546.503 118.12 546.503H159.293C159.836 546.503 160.37 546.639 160.851 546.901C161.331 547.163 161.743 547.542 162.051 548.005L167.082 555.548Z" fill="#1F026B"/>
<path d="M115.507 553.628L120.259 546.503H118.12C117.578 546.503 117.043 546.639 116.563 546.901C116.083 547.163 115.671 547.542 115.362 548.005L110.332 555.548H167.082L165.801 553.628H115.507Z" fill="#323150"/>
<path d="M177.662 555.548H99.7576C96.5972 555.548 94.0352 558.21 94.0352 561.493V574.874C94.0352 578.157 96.5972 580.818 99.7576 580.818H177.662C180.822 580.818 183.384 578.157 183.384 574.874V561.493C183.384 558.21 180.822 555.548 177.662 555.548Z" fill="#1F026B"/>
<path d="M180.058 577.051H102.164C100.646 577.051 99.1891 576.425 98.1143 575.31C97.0395 574.196 96.4343 572.684 96.4316 571.107V557.727C96.4331 557.341 96.4711 556.956 96.5452 556.578C95.7706 557.123 95.1366 557.857 94.699 558.716C94.2613 559.575 94.0334 560.532 94.0352 561.503V574.873C94.0352 576.45 94.6377 577.963 95.7106 579.08C96.7835 580.196 98.239 580.825 99.7576 580.828H177.662C178.988 580.826 180.273 580.345 181.296 579.469C182.319 578.592 183.017 577.373 183.271 576.021C182.326 576.696 181.205 577.055 180.058 577.051Z" fill="#323150"/>
<path d="M171.267 563.746H105.015C103.343 563.746 101.988 565.154 101.988 566.89V569.582C101.988 571.318 103.343 572.726 105.015 572.726H171.267C172.939 572.726 174.294 571.318 174.294 569.582V566.89C174.294 565.154 172.939 563.746 171.267 563.746Z" fill="#323150"/>
<path d="M139.038 483.488C138.491 483.485 137.967 483.258 137.58 482.856C137.193 482.454 136.975 481.91 136.972 481.342V440.461L129.876 446.084C129.436 446.383 128.904 446.499 128.386 446.406C127.868 446.314 127.403 446.022 127.085 445.588C126.766 445.153 126.618 444.61 126.67 444.067C126.723 443.524 126.971 443.021 127.366 442.661L137.788 434.42C138.094 434.179 138.459 434.031 138.842 433.993C139.225 433.955 139.61 434.029 139.955 434.206C140.299 434.383 140.589 434.657 140.792 434.996C140.995 435.336 141.103 435.727 141.104 436.126V481.342C141.104 481.911 140.886 482.457 140.499 482.859C140.111 483.261 139.586 483.488 139.038 483.488V483.488Z" fill="#F4A93F"/>
<path d="M150.947 485.569H126.89C126.342 485.569 125.817 485.343 125.429 484.941C125.042 484.538 124.824 483.992 124.824 483.423C124.824 482.854 125.042 482.308 125.429 481.906C125.817 481.503 126.342 481.277 126.89 481.277H150.947C151.495 481.277 152.021 481.503 152.408 481.906C152.795 482.308 153.013 482.854 153.013 483.423C153.013 483.992 152.795 484.538 152.408 484.941C152.021 485.343 151.495 485.569 150.947 485.569V485.569Z" fill="#F4A93F"/>
<path d="M140.073 483.488C139.526 483.485 139.002 483.258 138.615 482.856C138.228 482.454 138.01 481.91 138.007 481.342V440.461L130.911 446.084C130.471 446.383 129.939 446.499 129.421 446.406C128.903 446.314 128.438 446.022 128.12 445.588C127.802 445.153 127.653 444.61 127.706 444.067C127.758 443.524 128.006 443.021 128.401 442.661L138.823 434.42C139.129 434.179 139.494 434.031 139.877 433.993C140.26 433.955 140.645 434.029 140.99 434.206C141.335 434.383 141.625 434.657 141.828 434.996C142.031 435.336 142.138 435.727 142.139 436.126V481.342C142.139 481.911 141.921 482.457 141.534 482.859C141.146 483.261 140.621 483.488 140.073 483.488V483.488Z" fill="#1F026B"/>
<path d="M151.982 485.569H127.925C127.377 485.569 126.852 485.343 126.464 484.941C126.077 484.538 125.859 483.992 125.859 483.423C125.859 482.854 126.077 482.308 126.464 481.906C126.852 481.503 127.377 481.277 127.925 481.277H151.982C152.53 481.277 153.056 481.503 153.443 481.906C153.831 482.308 154.048 482.854 154.048 483.423C154.048 483.992 153.831 484.538 153.443 484.941C153.056 485.343 152.53 485.569 151.982 485.569Z" fill="#1F026B"/>
<path d="M118.061 432.478C118.061 435.461 113.878 437.736 113.041 440.429C112.204 443.122 114.229 447.607 112.597 449.936C110.965 452.264 106.296 451.588 104.023 453.305C101.751 455.021 100.997 459.818 98.3008 460.73C95.6049 461.642 92.3408 458.219 89.4589 458.219C86.577 458.219 83.2199 461.61 80.6273 460.73C78.0346 459.85 77.1359 455 74.8945 453.305C72.653 451.609 67.9738 452.285 66.3211 449.936C64.6684 447.586 66.7549 443.23 65.8873 440.429C65.0196 437.629 60.8672 435.461 60.8672 432.478C60.8672 429.495 65.0403 427.21 65.8873 424.517C66.7343 421.824 64.6994 417.339 66.3211 415.01C67.9428 412.682 72.6323 413.358 74.8945 411.641C77.1566 409.924 77.9313 405.128 80.6273 404.216C83.3232 403.304 86.577 406.727 89.4589 406.727C92.3408 406.727 95.6978 403.336 98.3008 404.216C100.904 405.096 101.782 409.946 104.023 411.641C106.265 413.336 110.944 412.66 112.597 415.01C114.249 417.36 112.163 421.716 113.041 424.517C113.919 427.317 118.061 429.485 118.061 432.478Z" fill="#F4C23F"/>
<path d="M88.7961 453.755C83.8353 453.751 79.078 451.706 75.5642 448.069C73.8603 446.293 72.4999 444.195 71.5564 441.888C70.1049 438.328 69.7109 434.397 70.425 430.602C71.1391 426.807 72.9287 423.321 75.5642 420.59C78.6321 417.402 82.6712 415.422 86.99 414.988C91.3088 414.554 95.6386 415.692 99.2381 418.209C102.838 420.726 105.483 424.464 106.721 428.784C107.959 433.104 107.713 437.736 106.026 441.888C104.594 445.406 102.197 448.408 99.1323 450.519C96.068 452.629 92.4729 453.755 88.7961 453.755Z" fill="#F4A93F"/>
<path d="M100.656 438.551C100.571 438.358 100.451 438.183 100.301 438.038C100.151 437.892 99.9757 437.779 99.7838 437.704C99.592 437.63 99.3878 437.595 99.183 437.602C98.9783 437.609 98.7769 437.659 98.5904 437.747L87.1144 443.112C86.9528 443.182 86.8056 443.284 86.6806 443.412C86.5556 443.284 86.4084 443.182 86.2468 443.112L74.7605 437.747C74.575 437.657 74.3741 437.607 74.1698 437.599C73.9654 437.592 73.7616 437.626 73.5702 437.701C73.3788 437.776 73.2037 437.89 73.0552 438.036C72.9066 438.182 72.7875 438.357 72.705 438.551L67.375 450.88C69.4512 452.124 73.0045 451.878 74.8948 453.305C77.064 454.946 77.88 459.517 80.3694 460.633L86.6806 446.051L92.2791 458.981C94.376 459.925 96.5142 461.331 98.3011 460.73C100.997 459.818 101.782 455 104.024 453.305C104.716 452.79 105.614 452.489 106.585 452.264L100.656 438.551Z" fill="#F4A93F"/>
<path d="M77.5178 467.372L74.7908 462.371C74.6286 462.073 74.3788 461.836 74.0778 461.695C73.7768 461.554 73.4403 461.517 73.1175 461.588L67.7152 462.79C67.4335 462.855 67.1398 462.838 66.8673 462.739C66.5948 462.64 66.3542 462.464 66.1727 462.231C65.9912 461.998 65.8761 461.717 65.8402 461.419C65.8043 461.122 65.8491 460.82 65.9695 460.547L75.4829 438.551C75.5676 438.358 75.6883 438.183 75.838 438.038C75.9877 437.892 76.1635 437.779 76.3553 437.704C76.5472 437.63 76.7513 437.595 76.9561 437.602C77.1609 437.61 77.3623 437.659 77.5488 437.747L89.0247 443.112C89.4007 443.287 89.6943 443.611 89.8414 444.011C89.9886 444.411 89.9771 444.855 89.8097 445.247L80.286 467.232C80.17 467.505 79.9829 467.74 79.7457 467.909C79.5086 468.078 79.2308 468.176 78.9434 468.19C78.656 468.205 78.3704 468.136 78.1186 467.991C77.8668 467.847 77.6588 467.632 77.5178 467.372V467.372Z" fill="#1F026B"/>
<path d="M78.8089 442.586C78.9862 442.188 79.0862 441.757 79.1033 441.319C79.1203 440.881 79.054 440.444 78.9082 440.032C78.7624 439.62 78.5399 439.243 78.2534 438.921C77.967 438.598 77.6223 438.338 77.2389 438.154L76.3299 437.714C75.9544 437.87 75.651 438.17 75.4829 438.551L65.9695 460.547C65.8491 460.82 65.8043 461.122 65.8402 461.419C65.8761 461.717 65.9912 461.998 66.1727 462.231C66.3542 462.464 66.5948 462.64 66.8673 462.739C67.1398 462.837 67.4335 462.855 67.7152 462.79L70.0496 462.264L78.8089 442.586Z" fill="#1F026B"/>
<path d="M101.409 467.371L104.126 462.371C104.289 462.071 104.54 461.832 104.843 461.691C105.146 461.55 105.485 461.514 105.81 461.588L111.212 462.79C111.493 462.851 111.785 462.83 112.055 462.73C112.325 462.63 112.564 462.455 112.745 462.223C112.925 461.991 113.04 461.712 113.078 461.416C113.116 461.121 113.074 460.82 112.958 460.547L103.434 438.551C103.351 438.357 103.232 438.182 103.084 438.036C102.935 437.89 102.76 437.776 102.569 437.701C102.377 437.626 102.173 437.592 101.969 437.599C101.765 437.607 101.564 437.657 101.378 437.747L89.8921 443.112C89.5161 443.287 89.2224 443.611 89.0753 444.011C88.9282 444.411 88.9396 444.855 89.107 445.247L98.6307 467.232C98.7485 467.505 98.9368 467.739 99.1748 467.908C99.4127 468.076 99.691 468.173 99.9788 468.188C100.267 468.202 100.553 468.134 100.805 467.989C101.058 467.845 101.267 467.631 101.409 467.371V467.371Z" fill="#1F026B"/>
<path d="M92.878 444.27L89.3867 445.891L98.6315 467.232C98.7493 467.505 98.9376 467.739 99.1756 467.908C99.4135 468.076 99.6918 468.173 99.9796 468.188C100.267 468.202 100.553 468.134 100.806 467.99C101.058 467.845 101.268 467.632 101.41 467.372L102.174 465.955L92.878 444.27Z" fill="#1F026B"/>
<path d="M89.0251 443.112L77.5492 437.747C77.3627 437.659 77.1613 437.61 76.9565 437.602C76.7517 437.595 76.5476 437.63 76.3557 437.704C76.1639 437.779 75.9881 437.892 75.8384 438.038C75.6887 438.183 75.568 438.358 75.4833 438.551L72.8906 444.56C73.6518 445.831 74.5493 447.008 75.5659 448.069C78.4477 451.048 82.1799 452.979 86.2052 453.573L89.8101 445.247C89.9776 444.855 89.989 444.411 89.8419 444.011C89.6947 443.611 89.4011 443.287 89.0251 443.112V443.112Z" fill="#1F026B"/>
<path d="M105.438 443.197L103.434 438.551C103.351 438.357 103.232 438.182 103.084 438.036C102.935 437.89 102.76 437.776 102.569 437.701C102.377 437.626 102.173 437.592 101.969 437.599C101.765 437.607 101.564 437.657 101.378 437.747L89.8921 443.112C89.5161 443.287 89.2224 443.611 89.0753 444.011C88.9282 444.411 88.9396 444.855 89.107 445.247L92.619 453.348C93.8045 453.088 94.9633 452.711 96.0794 452.221C100.122 450.447 103.434 447.253 105.438 443.197Z" fill="#1F026B"/>
<path d="M89.4575 450.182C99.1271 450.182 106.966 442.04 106.966 431.995C106.966 421.951 99.1271 413.809 89.4575 413.809C79.7879 413.809 71.9492 421.951 71.9492 431.995C71.9492 442.04 79.7879 450.182 89.4575 450.182Z" fill="#F8881B"/>
<path d="M89.4592 448.058C97.9992 448.058 104.922 440.867 104.922 431.996C104.922 423.124 97.9992 415.933 89.4592 415.933C80.9191 415.933 73.9961 423.124 73.9961 431.996C73.9961 440.867 80.9191 448.058 89.4592 448.058Z" fill="#F08000"/>
<path d="M89.4582 446.255C97.0398 446.255 103.186 439.871 103.186 431.996C103.186 424.12 97.0398 417.736 89.4582 417.736C81.8766 417.736 75.7305 424.12 75.7305 431.996C75.7305 439.871 81.8766 446.255 89.4582 446.255Z" fill="#F4C23F"/>
<path d="M101.688 410.976C102.072 410.742 102.406 410.428 102.669 410.053C101.316 407.929 100.365 404.914 98.2996 404.216C97.5869 403.98 96.8122 404.055 96.0168 404.302C95.7749 404.788 95.6539 405.33 95.6647 405.877C95.6756 406.424 95.8179 406.96 96.0788 407.435L97.3906 409.785C97.8095 410.534 98.4969 411.079 99.3023 411.303C100.108 411.526 100.965 411.408 101.688 410.976Z" fill="#FAD564"/>
<path d="M89.5287 407.8C89.7401 407.463 89.8906 407.088 89.9728 406.695C89.8014 406.716 89.629 406.727 89.4564 406.727C86.9257 406.727 84.0334 404.12 81.5957 404.077C81.5146 404.689 81.6026 405.313 81.8495 405.875C82.0964 406.437 82.492 406.915 82.9902 407.253L85.18 408.744C85.5252 408.979 85.9115 409.141 86.3169 409.22C86.7223 409.3 87.1388 409.296 87.5427 409.208C87.9466 409.121 88.3298 408.951 88.6706 408.709C89.0113 408.468 89.3029 408.159 89.5287 407.8Z" fill="#FAD564"/>
<path d="M113.039 424.517C112.161 421.716 114.226 417.339 112.594 415.01C111.562 413.54 109.361 413.261 107.295 412.843C106.747 413.811 106.505 414.933 106.603 416.051L107.017 420.429C107.08 421.121 107.274 421.793 107.588 422.407C107.901 423.021 108.329 423.565 108.845 424.007C109.361 424.45 109.956 424.782 110.596 424.986C111.236 425.189 111.908 425.259 112.574 425.193C112.804 425.171 113.031 425.132 113.256 425.075C113.17 424.895 113.097 424.708 113.039 424.517V424.517Z" fill="#FAD564"/>
<path d="M84.147 458.17C84.6854 456.96 84.1773 455.525 83.0121 454.966C81.8469 454.406 80.4659 454.934 79.9275 456.145L78.1589 460.121C77.6205 461.331 78.1286 462.766 79.2938 463.325C80.459 463.884 81.84 463.356 82.3784 462.146L84.147 458.17Z" fill="#1F026B"/>
<path d="M108.43 450.058C107.908 448.84 106.534 448.292 105.361 448.834C104.189 449.377 103.662 450.804 104.184 452.022L105.899 456.023C106.421 457.241 107.794 457.789 108.967 457.247C110.14 456.704 110.667 455.277 110.145 454.059L108.43 450.058Z" fill="#1F026B"/>
<path d="M154.688 546.503H128.73C127.527 546.503 126.551 547.516 126.551 548.766C126.551 550.015 127.527 551.028 128.73 551.028H154.688C155.892 551.028 156.868 550.015 156.868 548.766C156.868 547.516 155.892 546.503 154.688 546.503Z" fill="#1F026B"/>
<path d="M173.23 555.548H128.535C127.057 555.548 125.859 556.793 125.859 558.327V558.33C125.859 559.864 127.057 561.109 128.535 561.109H173.23C174.707 561.109 175.905 559.864 175.905 558.33V558.327C175.905 556.793 174.707 555.548 173.23 555.548Z" fill="#1F026B"/>
<path d="M167.01 418.111H143.149C140.81 418.111 138.914 420.079 138.914 422.506C138.914 424.933 140.81 426.9 143.149 426.9H167.01C169.349 426.9 171.245 424.933 171.245 422.506C171.245 420.079 169.349 418.111 167.01 418.111Z" fill="#FAD564"/>
<path d="M186.687 439.657C186.687 436.711 184.391 434.324 181.558 434.324C178.726 434.324 176.43 436.711 176.43 439.657V458.677C176.43 461.622 178.726 464.01 181.558 464.01C184.391 464.01 186.687 461.622 186.687 458.677V439.657Z" fill="#FAD564"/>
<path d="M147.189 526.857C147.189 525.287 145.964 524.014 144.452 524.014C142.94 524.014 141.715 525.287 141.715 526.857V535.791C141.715 537.361 142.94 538.634 144.452 538.634C145.964 538.634 147.189 537.361 147.189 535.791V526.857Z" fill="#FAD564"/>
<path d="M627.02 20.68V24.94H607.52V28.66V29.62V58H602.9C601.74 55.64 600.12 53.42 598.04 51.34C595.96 49.26 593.58 47.52 590.9 46.12C588.26 44.68 585.48 43.78 582.56 43.42L580.22 37.66C584.1 35.42 587.98 33.42 591.86 31.66C595.74 29.9 599.86 28.34 604.22 26.98L602.9 29.5V24.94H577.4V20.68H627.02ZM602.9 29.98L604.16 31.72C602.12 32.28 600 33.02 597.8 33.94C595.64 34.86 593.52 35.82 591.44 36.82C589.4 37.82 587.52 38.8 585.8 39.76C588.04 40.2 590.34 41.04 592.7 42.28C595.1 43.52 597.28 45.04 599.24 46.84C601.24 48.6 602.72 50.52 603.68 52.6L603.2 52.72C603.12 51.8 603.04 50.88 602.96 49.96C602.92 49.04 602.9 47.94 602.9 46.66V29.98ZM623.66 40.72C623.66 42.04 623.4 43.3 622.88 44.5C622.36 45.66 621.5 46.62 620.3 47.38C619.1 48.14 617.5 48.52 615.5 48.52C614.86 48.52 614.24 48.5 613.64 48.46C613.08 48.42 612.52 48.34 611.96 48.22L612.32 43.9C612.56 43.94 612.84 43.98 613.16 44.02C613.52 44.02 613.92 44.02 614.36 44.02C616.28 44.02 617.52 43.66 618.08 42.94C618.68 42.18 618.98 41.28 618.98 40.24C618.98 38.12 617.94 36.32 615.86 34.84C613.82 33.32 610.78 32.28 606.74 31.72L606.92 27.22C610 27.54 612.8 28.32 615.32 29.56C617.84 30.76 619.86 32.32 621.38 34.24C622.9 36.12 623.66 38.28 623.66 40.72Z" fill="#698DA5"/>
<path d="M416.121 77.478L485.631 36.5513L477.577 84.9935L408.067 125.92L416.121 77.4781L416.121 77.478Z" fill="#1F026B"/>
<path d="M420.359 66.064L456.738 43.9865L447.225 99.964L410.846 122.042L420.359 66.064V66.064Z" fill="#E0E0E0"/>
<path d="M446.658 52.1747L479.276 19.1082L469.296 79.0635L436.678 112.13L446.658 52.1747V52.1747Z" fill="#F2F2F2"/>
<path d="M442.965 112.272L475.537 92.5005L482.504 51.5121L472.168 52.8319L467.046 82.9639L438.391 112.744L442.975 112.213L442.965 112.272Z" fill="#1F026B"/>
<path d="M416.738 123.867L418.54 124.418L444.268 112.178L416.738 123.867Z" fill="#1F026B"/>
<defs>
<filter id="filter0_f_544_19" x="823.445" y="204.148" width="58.0133" height="45.9079" filterUnits="userSpaceOnUse" color-interpolation-filters="sRGB">
<feFlood flood-opacity="0" result="BackgroundImageFix"/>
<feBlend mode="normal" in="SourceGraphic" in2="BackgroundImageFix" result="shape"/>
<feGaussianBlur stdDeviation="1.83047" result="effect1_foregroundBlur_544_19"/>
</filter>
<clipPath id="clip0_544_19">
<rect width="931.317" height="917.995" fill="white" transform="translate(130.426) rotate(8.16797)"/>
</clipPath>
<clipPath id="clip1_544_19">
<rect width="111.844" height="113.847" fill="white" transform="translate(619.824 135.693) rotate(-38.6758)"/>
</clipPath>
<clipPath id="clip2_544_19">
<rect width="50.8862" height="34.4713" fill="white" transform="translate(231.453 34.4713)"/>
</clipPath>
<clipPath id="clip3_544_19">
<rect width="52.5277" height="44.3202" fill="white" transform="translate(826 203)"/>
</clipPath>
<clipPath id="clip4_544_19">
<rect width="572.88" height="499.013" fill="white" transform="translate(238.02 206.828)"/>
</clipPath>
<clipPath id="clip5_544_19">
<rect width="129.96" height="150.391" fill="white" transform="translate(103.285 119.829) rotate(13.1989)"/>
</clipPath>
</defs>
</svg>
