<svg width="236" height="380" viewBox="0 0 236 380" fill="none" xmlns="http://www.w3.org/2000/svg">
<path d="M2 50L54.5 71.5V68.5C107.898 55.6242 136.024 54.7263 181.5 68.5V71.5L234.5 50L117.5 1L2 50Z" fill="#1F026B" stroke="#1F026B"/>
<path d="M203 85L201.5 63.5L211 60L214 85C209.781 82.6787 207.219 82.6748 203 85Z" fill="#1F026B" stroke="#1F026B"/>
<circle cx="208.5" cy="92" r="6" fill="#91D7C5" stroke="#91D7C5"/>
<path d="M210.5 140.5C214.753 125.629 216.554 116.972 215 99C209.789 102.552 206.966 101.972 202 98C200.529 106.568 199.008 111.302 194.5 119.5C199.7 120.625 201.794 121.613 203 124.5C204.351 133.001 206.158 136.247 210.5 140.5Z" fill="#1F026B" stroke="#1F026B"/>
<path d="M64 84.7525V69.7498C106 60.75 131 60.75 173 69.7498V84.7525C149.974 85.6374 137.743 89.5276 117.187 102.752C96.9699 90.5002 85.4254 85.7149 64 84.7525Z" fill="#1F026B" stroke="#1F026B"/>
<path d="M82.25 167V86H91H157.25M142 86H157.25M157.25 86L158 167.5" stroke="#1F026B" stroke-width="2"/>
<path d="M233 270C233 330.15 181.563 379 118 379C54.4365 379 3 330.15 3 270C3 209.85 54.4365 161 118 161C181.563 161 233 209.85 233 270Z" stroke="#1F026B" stroke-width="2"/>
<path d="M118.072 377.002L118.055 377.002H118.038C56.4134 377.002 5.07615 328.693 5.07615 271.002V270.981L5.07522 270.959C4.70684 262.42 5.70582 256.244 7.76189 251.917C9.79647 247.635 12.886 245.117 16.8691 243.888C20.901 242.644 25.9096 242.705 31.7536 243.746C37.587 244.786 44.1647 246.786 51.2917 249.339C58.2328 251.826 65.6591 254.824 73.392 257.946L74.0057 258.193C81.9521 261.401 90.2103 264.726 98.5492 267.731C115.211 273.735 132.291 278.5 148 278.5C177.056 278.5 197.001 264.32 210.075 255.025C211.14 254.268 212.16 253.543 213.135 252.861C216.391 250.583 219.087 248.828 221.331 247.883C223.582 246.935 225.102 246.916 226.236 247.664C227.448 248.464 228.559 250.343 229.402 254.085C230.234 257.777 230.757 263.052 231 270.318C232.978 329.38 176.535 378.985 118.072 377.002Z" fill="#91D7C5" stroke="#91D7C5" stroke-width="2"/>
<path fill-rule="evenodd" clip-rule="evenodd" d="M148 157H135V166H141V177H157V164L148 160.885V157Z" fill="white"/>
<path d="M83 123C97.6517 117.74 105.173 116.717 122 117.06" stroke="#1F026B" stroke-width="2"/>
<path d="M83 145C97.6517 139.74 105.173 138.717 122 139.06" stroke="#1F026B" stroke-width="2"/>
<circle cx="138.5" cy="316.5" r="12.5" fill="white"/>
<circle cx="172.5" cy="334.5" r="7.5" fill="white"/>
<circle cx="122.5" cy="358.5" r="5.5" fill="white"/>
<circle cx="125.5" cy="216.5" r="12.5" fill="#91D7C5"/>
<circle cx="172.5" cy="259.5" r="7.5" fill="#91D7C5"/>
<circle cx="136.5" cy="251.5" r="5.5" fill="#91D7C5"/>
</svg>
