<svg width="236" height="380" viewBox="0 0 236 380" fill="none" xmlns="http://www.w3.org/2000/svg">
<path d="M2 50L54.5 71.5V68.5C107.898 55.6242 136.024 54.7263 181.5 68.5V71.5L234.5 50L117.5 1L2 50Z" fill="#1F026B" stroke="#1F026B"/>
<path d="M203 85L201.5 63.5L211 60L214 85C209.781 82.6787 207.219 82.6748 203 85Z" fill="#1F026B" stroke="#1F026B"/>
<circle cx="208.5" cy="92" r="6" fill="#91D7C5" stroke="#91D7C5"/>
<path d="M210.5 140.5C214.753 125.629 216.554 116.972 215 99C209.789 102.552 206.966 101.972 202 98C200.529 106.568 199.008 111.302 194.5 119.5C199.7 120.625 201.794 121.613 203 124.5C204.351 133.001 206.158 136.247 210.5 140.5Z" fill="#1F026B" stroke="#1F026B"/>
<path d="M64 84.7525V69.7498C106 60.75 131 60.75 173 69.7498V84.7525C149.974 85.6374 137.743 89.5276 117.187 102.752C96.9699 90.5002 85.4254 85.7149 64 84.7525Z" fill="#1F026B" stroke="#1F026B"/>
<path d="M82.25 166V85H91H157.25M142 85H157.25M157.25 85L158 168.5" stroke="#1F026B" stroke-width="4"/>
<path d="M232 270C232 329.548 181.062 378 118 378C54.9381 378 4 329.548 4 270C4 210.452 54.9381 162 118 162C181.062 162 232 210.452 232 270Z" stroke="#1F026B" stroke-width="4"/>
<path d="M118.046 374.943L118.029 374.943H118.012C57.4934 374.943 7.0748 327.387 7.0748 270.594V270.573L7.07388 270.551C6.71207 262.145 7.69333 256.067 9.71151 251.809C11.7082 247.597 14.7393 245.121 18.6464 243.913C22.6023 242.69 27.5183 242.749 33.2571 243.774C38.9852 244.797 45.4449 246.766 52.4449 249.28C59.2624 251.728 66.5563 254.68 74.152 257.753L74.7547 257.997C82.56 261.155 90.6718 264.429 98.8629 267.387C115.23 273.299 132.009 277.992 147.442 277.992C175.989 277.992 195.584 264.027 208.426 254.876C209.472 254.13 210.473 253.416 211.431 252.745C214.63 250.502 217.277 248.775 219.478 247.845C221.687 246.913 223.172 246.898 224.278 247.629C225.462 248.412 226.553 250.256 227.381 253.941C228.198 257.575 228.711 262.767 228.95 269.921C230.893 328.064 175.459 376.896 118.046 374.943Z" fill="#91D7C5" stroke="#91D7C5" stroke-width="2"/>
<path fill-rule="evenodd" clip-rule="evenodd" d="M142.091 157H122V166H131V177H156V164L142.091 160.885V157Z" fill="white"/>
<path d="M83 123C97.6517 117.74 105.173 116.717 122 117.06" stroke="#1F026B" stroke-width="4"/>
<path d="M83 145C97.6517 139.74 105.173 138.717 122 139.06" stroke="#1F026B" stroke-width="4"/>
<circle cx="138.5" cy="316.5" r="12.5" fill="white"/>
<circle cx="172.5" cy="334.5" r="7.5" fill="white"/>
<circle cx="122.5" cy="358.5" r="5.5" fill="white"/>
<circle cx="152.5" cy="233.5" r="12.5" fill="#91D7C5"/>
<circle cx="172.5" cy="259.5" r="7.5" fill="#91D7C5"/>
<circle cx="138.5" cy="259.5" r="5.5" fill="#91D7C5"/>
</svg>
