<svg width="100" height="100" viewBox="0 0 100 100" fill="none" xmlns="http://www.w3.org/2000/svg">
<path d="M0 50C0 22.3828 22.3828 0 50 0C77.6172 0 100 22.3828 100 50C100 77.6172 77.6172 100 50 100C22.3828 100 0 77.6172 0 50ZM50 71.875C52.5977 71.875 54.6875 69.7852 54.6875 67.1875V54.6875H67.1875C69.7852 54.6875 71.875 52.5977 71.875 50C71.875 47.4023 69.7852 45.3125 67.1875 45.3125H54.6875V32.8125C54.6875 30.2148 52.5977 28.125 50 28.125C47.4023 28.125 45.3125 30.2148 45.3125 32.8125V45.3125H32.8125C30.2148 45.3125 28.125 47.4023 28.125 50C28.125 52.5977 30.2148 54.6875 32.8125 54.6875H45.3125V67.1875C45.3125 69.7852 47.4023 71.875 50 71.875Z" fill="#1F026B"/>
</svg>
