<svg width="100" height="100" viewBox="0 0 100 100" fill="none" xmlns="http://www.w3.org/2000/svg">
<circle cx="50" cy="50" r="50" fill="#1F026B"/>
<path d="M22 36.25C22 32.3146 25.1896 29.125 29.125 29.125H71.875C75.8049 29.125 79 32.3146 79 36.25V64.75C79 68.6799 75.8049 71.875 71.875 71.875H29.125C25.1896 71.875 22 68.6799 22 64.75V36.25ZM27.3438 36.25V38.7104L46.5479 54.4744C48.8412 56.367 52.1588 56.367 54.4521 54.4744L73.6562 38.7104V36.1498C73.6562 35.2703 72.8547 34.3686 71.875 34.3686H29.125C28.1409 34.3686 27.3438 35.2703 27.3438 36.1498V36.25ZM27.3438 45.6238V64.75C27.3438 65.7297 28.1409 66.5312 29.125 66.5312H71.875C72.8547 66.5312 73.6562 65.7297 73.6562 64.75V45.6238L57.8477 58.6047C53.5727 62.1115 47.4273 62.1115 43.0521 58.6047L27.3438 45.6238Z" fill="white"/>
</svg>
