<svg width="100" height="100" viewBox="0 0 100 100" fill="none" xmlns="http://www.w3.org/2000/svg">
<circle cx="50" cy="50" r="50" fill="#1F026B"/>
<path d="M66.875 46.3421L43.1651 70.0439L39.7184 66.5969L40.0743 66.241H35.3872C34.4925 66.241 33.7605 65.5089 33.7605 64.6141V59.9267L33.4056 60.2826C32.9247 60.7706 32.5719 61.3604 32.3798 62.0111L30.0433 69.9626L37.99 67.6239C38.5492 67.4307 39.2304 67.0748 39.7184 66.5969L43.1651 70.0439C42.1077 71.1014 40.7962 71.8843 39.3626 72.3012L27.1284 75.9007C26.2723 76.1549 25.3461 75.921 24.7147 75.1991C24.0833 74.6602 23.8473 73.7349 24.0992 72.8706L27.6978 60.6384C28.1207 59.2047 28.8965 57.8931 29.9549 56.8356L53.6576 33.1277L66.875 46.3421ZM74.0937 29.9156C76.6354 32.4566 76.6354 36.5808 74.0937 39.1228L69.1727 44.0442L55.9554 30.8277L60.8763 25.9064C63.4181 23.3645 67.546 23.3645 70.0878 25.9064L74.0937 29.9156Z" fill="white"/>
</svg>
